#define x_width 32
#define x_height 32
static char x_bits[] = {
0x00, 0x00, 0x00, 0x00, 
0x00, 0x00, 0x14, 0x00, 
0x00, 0x00, 0x20, 0x00, 
0x00, 0x50, 0x15, 0x00, 
0x00, 0x00, 0x0a, 0x00, 
0x00, 0x40, 0x15, 0x00, 
0x00, 0x00, 0x2a, 0x00, 
0x00, 0x07, 0x51, 0x00, 
0x00, 0x88, 0x00, 0x00, 
0x00, 0x55, 0x55, 0x00, 
0x80, 0xaa, 0xaa, 0x00, 
0x50, 0x75, 0x75, 0x01, 
0xa8, 0xaa, 0xaa, 0x08, 
0x40, 0x55, 0x55, 0x05, 
0x80, 0xaa, 0xaa, 0x02, 
0x00, 0x57, 0x77, 0x07, 
0x00, 0x80, 0xaa, 0x02, 
0x00, 0x50, 0x55, 0x05, 
0x20, 0x80, 0xa0, 0x02, 
0x40, 0x40, 0x51, 0x01, 
0x00, 0x80, 0x80, 0x02, 
0x00, 0x04, 0x40, 0x01, 
0x00, 0x00, 0xa8, 0x02, 
0x00, 0x10, 0x50, 0x01, 
0x00, 0x00, 0xa8, 0x00, 
0x00, 0x00, 0x51, 0x05, 
0x00, 0x00, 0x80, 0x00, 
0x00, 0x00, 0x40, 0x01, 
0x00, 0x00, 0x80, 0x02, 
0x00, 0x00, 0x40, 0x01, 
0x00, 0x00, 0x80, 0x00, 
0x00, 0x00, 0x00, 0x01, 
}; 
